<?xml version="1.0" encoding="UTF-8"?>
<!DOCTYPE svg PUBLIC "-//W3C//DTD SVG 1.1//EN" "http://www.w3.org/Graphics/SVG/1.1/DTD/svg11.dtd">
<!-- Creator: CorelDRAW X7 -->
<svg xmlns="http://www.w3.org/2000/svg" xml:space="preserve" width="93.4476mm" height="139.797mm" version="1.1" style="shape-rendering:geometricPrecision; text-rendering:geometricPrecision; image-rendering:optimizeQuality; fill-rule:evenodd; clip-rule:evenodd"
viewBox="0 0 21111 31582"
 xmlns:xlink="http://www.w3.org/1999/xlink">
 <defs>
  <style type="text/css">
   <![CDATA[
    .fil2 {fill:#03A3DC}
    .fil0 {fill:white}
    .fil1 {fill:url(#id0)}
   ]]>
  </style>
  <linearGradient id="id0" gradientUnits="userSpaceOnUse" x1="10673.5" y1="24981.8" x2="10673.6" y2="4120.78">
   <stop offset="0" style="stop-opacity:1; stop-color:#03A3DC"/>
   <stop offset="1" style="stop-opacity:1; stop-color:#2F318B"/>
  </linearGradient>
 </defs>
 <g id="Layer_x0020_1">
  <metadata id="CorelCorpID_0Corel-Layer"/>
  <g id="_2877480828400">
   <path class="fil0" d="M9187 14877c-138,-818 457,-1500 1099,-1599 1917,-298 2180,2471 485,2706 -837,116 -1474,-449 -1584,-1107zm850 -4419c2626,-296 5057,2250 3860,2825 -498,239 -748,-212 -927,-435 -1353,-1680 -3794,-1554 -4979,-31 -254,326 -698,455 -989,114 -654,-770 1208,-2266 3035,-2473zm-272 -2380c3450,-421 6068,2367 5963,3189 -49,380 -655,877 -1177,110 -172,-254 -236,-329 -446,-551 -601,-633 -1415,-1231 -2575,-1475 -1263,-266 -2402,-75 -3406,435 -743,377 -1182,782 -1667,1385 -148,185 -323,369 -715,249 -239,-73 -430,-332 -396,-638 27,-241 268,-480 382,-618 943,-1146 2449,-1892 4037,-2086zm-265 -2605c1602,-159 3144,124 4351,723 1151,571 2213,1407 2860,2301 143,198 470,564 451,883 -20,351 -324,619 -713,551 -359,-63 -664,-749 -1236,-1325 -2045,-2056 -4989,-2517 -7649,-1380 -1869,798 -2455,2190 -2899,2281 -433,89 -765,-191 -740,-624 30,-534 1404,-1691 1852,-2000 1037,-713 2221,-1261 3723,-1410zm-2933 11726c510,221 831,450 1447,663 560,194 1109,306 1744,377 1071,118 1866,6 2857,-244 295,-75 508,-183 785,-251l150 -45 98 -28c54,-97 -105,-70 157,-80 98,-108 155,-124 302,-135 115,-142 864,-579 956,-608l35 -32 463 -336c45,-120 -26,8 55,-95l315 -293c384,-361 758,-842 1052,-1277 2418,-3577 1316,-8547 -2249,-10779 -4637,-2902 -10472,-393 -11703,4650 -443,1815 -201,3779 546,5230 364,707 799,1383 1260,1847 270,272 488,515 796,758 151,118 277,227 437,340 169,120 350,212 497,338z"/>
   <path class="fil1" d="M2848 18220c57,257 1610,2852 1893,3353l3852 6697c274,478 1730,3142 1959,3312 217,-248 6850,-11853 7610,-13202 159,-282 421,-664 488,-895 262,-296 484,-794 698,-1141 821,-1332 1281,-2386 1593,-4022 758,-3973 -1084,-8051 -4232,-10318 -5065,-3649 -12014,-2148 -15218,3147 -1567,2590 -1990,6001 -830,9016 317,825 806,1860 1252,2482 100,254 561,1054 724,1160 16,143 -6,114 92,196 4,19 7,28 12,55 4,26 9,40 16,51 58,96 20,46 91,109zm14260 -1710c-235,141 -579,570 -793,744 -261,212 -541,444 -875,665 -152,73 -85,20 -169,149 -165,15 -319,141 -509,244 -554,304 -977,477 -1596,680 -2054,674 -4327,484 -6280,-393 -230,-103 -744,-415 -946,-475m-29 -7c-3,-1 -7,-1 -9,-2l-481 -384c-830,-579 -958,-855 -1243,-1086 -76,-62 -24,-26 -102,-67 -110,-147 -236,-242 -344,-397 -920,-1171 -1709,-2527 -1957,-4462 -245,-1910 142,-3864 936,-5295 3574,-6432 12476,-6361 15859,377 1181,2352 1087,5353 -151,7787 -627,1233 -978,1368 -1311,1922m-13630 -1936c25,74 43,129 136,181 25,-48 66,7 0,-242 -94,22 -93,-25 -136,61zm10170 3097l-98 28 -150 45c-277,68 -490,176 -785,251 -991,250 -1786,362 -2857,244 -635,-71 -1184,-183 -1744,-377 -616,-213 -937,-442 -1447,-663 -91,214 -109,95 -145,301 -56,323 190,-54 -34,244 462,561 2707,1050 3290,1113 1028,111 3035,-57 3761,-486 115,-30 137,-19 255,-79 152,-78 70,-48 124,-106 144,-8 159,5 287,-99 324,-118 1597,-799 1803,-1177 -245,-50 -234,-66 -409,-46 -183,21 -242,50 -403,119l-33 -135c-92,29 -841,466 -956,608 -147,11 -204,27 -302,135 -262,10 -103,-17 -157,80zm1450 -855l117 37c127,-201 121,-53 342,-144l4 -229 -463 336zm-9406 503l86 -387c-252,-40 -163,-81 -357,-146 -115,-39 -301,-51 -428,-43 86,148 39,83 165,202 46,43 96,88 145,130 136,117 234,177 389,244z"/>
   <path class="fil0" d="M15908 16910c-206,378 -1479,1059 -1803,1177 -128,104 -143,91 -287,99 -54,58 28,28 -124,106 -118,60 -140,49 -255,79 -726,429 -2733,597 -3761,486 -583,-63 -2828,-552 -3290,-1113 -141,-9 -46,9 -191,-63 -2,-1 -144,-85 -175,-104 -152,-91 -228,-121 -330,-258 -155,-67 -253,-127 -389,-244 -49,-42 -99,-87 -145,-130 -126,-119 -79,-54 -165,-202 -346,-70 -1286,-1350 -1496,-1694 -393,-641 -776,-1400 -1003,-2217 -520,-1869 -376,-3862 333,-5514 2229,-5190 8518,-6619 12686,-3507 1153,861 2165,2043 2816,3681 986,2482 672,5537 -865,7746 -314,452 -1180,1546 -1556,1672zm-12176 -729c108,155 234,250 344,397 78,41 26,5 102,67 285,231 413,507 1243,1086l481 384c163,23 738,374 984,484 1953,877 4226,1067 6280,393 619,-203 1042,-376 1596,-680 190,-103 344,-229 509,-244 84,-129 17,-76 169,-149 334,-221 614,-453 875,-665 214,-174 558,-603 793,-744 333,-554 684,-689 1311,-1922 1238,-2434 1332,-5435 151,-7787 -3383,-6738 -12285,-6809 -15859,-377 -794,1431 -1181,3385 -936,5295 248,1935 1037,3291 1957,4462z"/>
   <path class="fil2" d="M3614 14755c-93,-52 -111,-107 -136,-181 43,-86 42,-39 136,-61 66,249 25,194 0,242zm1379 1988c127,-8 313,4 428,43 194,65 105,106 357,146l-86 387c102,137 178,167 330,258 31,19 173,103 175,104 145,72 50,54 191,63 224,-298 -22,79 34,-244 36,-206 54,-87 145,-301 -147,-126 -328,-218 -497,-338 -160,-113 -286,-222 -437,-340 -308,-243 -526,-486 -796,-758 -461,-464 -896,-1140 -1260,-1847 -747,-1451 -989,-3415 -546,-5230 1231,-5043 7066,-7552 11703,-4650 3565,2232 4667,7202 2249,10779 -294,435 -668,916 -1052,1277l-315 293c-81,103 -10,-25 -55,95l-4 229c-221,91 -215,-57 -342,144l-117 -37 -35 32 33 135c161,-69 220,-98 403,-119 175,-20 164,-4 409,46 376,-126 1242,-1220 1556,-1672 1537,-2209 1851,-5264 865,-7746 -651,-1638 -1663,-2820 -2816,-3681 -4168,-3112 -10457,-1683 -12686,3507 -709,1652 -853,3645 -333,5514 227,817 610,1576 1003,2217 210,344 1150,1624 1496,1694z"/>
   <path class="fil2" d="M9500 5473c-1502,149 -2686,697 -3723,1410 -448,309 -1822,1466 -1852,2000 -25,433 307,713 740,624 444,-91 1030,-1483 2899,-2281 2660,-1137 5604,-676 7649,1380 572,576 877,1262 1236,1325 389,68 693,-200 713,-551 19,-319 -308,-685 -451,-883 -647,-894 -1709,-1730 -2860,-2301 -1207,-599 -2749,-882 -4351,-723z"/>
   <path class="fil2" d="M9765 8078c-1588,194 -3094,940 -4037,2086 -114,138 -355,377 -382,618 -34,306 157,565 396,638 392,120 567,-64 715,-249 485,-603 924,-1008 1667,-1385 1004,-510 2143,-701 3406,-435 1160,244 1974,842 2575,1475 210,222 274,297 446,551 522,767 1128,270 1177,-110 105,-822 -2513,-3610 -5963,-3189z"/>
   <path class="fil2" d="M10037 10458c-1827,207 -3689,1703 -3035,2473 291,341 735,212 989,-114 1185,-1523 3626,-1649 4979,31 179,223 429,674 927,435 1197,-575 -1234,-3121 -3860,-2825z"/>
   <path class="fil2" d="M9187 14877c110,658 747,1223 1584,1107 1695,-235 1432,-3004 -485,-2706 -642,99 -1237,781 -1099,1599z"/>
  </g>
 </g>
</svg>
